<svg id="Layer_1" data-name="Layer 1" xmlns="http://www.w3.org/2000/svg" viewBox="0 0 19.42 16" width="16" height="16" style="width: 24px; height: 24px;">
    <defs>
        <style>
        .cls-1 {
          fill: #ffffff;
        }

        .cls-2, .cls-3 {
          fill: #fff;
        }

        .cls-2 {
          opacity: 0.5;
          isolation: isolate;
        }
      </style>
    </defs>
    <g>
        <path id="Path_7456-2" data-name="Path 7456-2" class="cls-1" d="M11.78.17a.51.51,0,0,0-.72,0L11,.17,7.44,4.24a.52.52,0,0,0,.39.85h2V11.7a.51.51,0,0,0,.51.51h2a.51.51,0,0,0,.51-.51h0V5.09h2a.51.51,0,0,0,.51-.51.55.55,0,0,0-.13-.34Z" style="fill: rgb(255, 255, 255);"></path>
        <path id="Path_8729-2" data-name="Path 8729-2" class="cls-1" d="M17.28,11.74v2.12H5.53V11.74L3.39,13.45v1.48A1.07,1.07,0,0,0,4.46,16H18.35a1.07,1.07,0,0,0,1.07-1.07h0V11.74Z" style="fill: rgb(255, 255, 255);"></path>
        <g id="Group_7678-2" data-name="Group 7678-2">
            <g id="Group_7621-2" data-name="Group 7621-2">
                <path id="Path_8669-2" data-name="Path 8669-2" class="cls-2" d="M2.69,6,0,14.49,6.62,9.13Z" style="fill: rgb(255, 255, 255);"></path>
                <path id="Path_8670-2" data-name="Path 8670-2" class="cls-3" d="M6.62,9.13,0,3.78l2.69,8.53Z" style="fill: rgb(255, 255, 255);"></path>
            </g>
        </g>
    </g>
</svg>